<mxfile host="65bd71144e">
    <diagram id="JVGaXCE9St1wJG0Z7-19" name="Page-1">
        <mxGraphModel dx="1204" dy="574" grid="1" gridSize="10" guides="1" tooltips="1" connect="1" arrows="1" fold="1" page="1" pageScale="1" pageWidth="850" pageHeight="1100" math="0" shadow="0">
            <root>
                <mxCell id="0"/>
                <mxCell id="1" parent="0"/>
                <mxCell id="O2ij5r8O3a5H5IsjcwUS-1" value="" style="whiteSpace=wrap;html=1;" parent="1" vertex="1">
                    <mxGeometry x="90" y="70" width="580" height="170" as="geometry"/>
                </mxCell>
            </root>
        </mxGraphModel>
    </diagram>
    <diagram id="wDlWls8E8YeSm5fSKdrj" name="Page-2">
        <mxGraphModel dx="1374" dy="823" grid="1" gridSize="10" guides="1" tooltips="1" connect="1" arrows="1" fold="1" page="1" pageScale="1" pageWidth="850" pageHeight="1100" math="0" shadow="0">
            <root>
                <mxCell id="MwxcGn07Ctgd18CiRntb-0"/>
                <mxCell id="MwxcGn07Ctgd18CiRntb-1" parent="MwxcGn07Ctgd18CiRntb-0"/>
            </root>
        </mxGraphModel>
    </diagram>
</mxfile>